<?xml version="1.0" encoding="utf-8"?>
<!-- Generator: Adobe Illustrator 27.5.0, SVG Export Plug-In . SVG Version: 6.00 Build 0)  -->
<svg version="1.1" xmlns="http://www.w3.org/2000/svg" xmlns:xlink="http://www.w3.org/1999/xlink" x="0px" y="0px"
	 viewBox="0 0 1200 675" style="enable-background:new 0 0 1200 675;" xml:space="preserve">
<g id="Background">
	<rect style="fill:#E8E8E8;" width="1200" height="675"/>
</g>
<g id="Object">
	<g style="opacity:0.42;">
		<defs>
			<rect id="SVGID_1_" style="opacity:0.42;" width="1200" height="675"/>
		</defs>
		<clipPath id="SVGID_00000173879097264508595000000011396738197857539505_">
			<use xlink:href="#SVGID_1_"  style="overflow:visible;"/>
		</clipPath>
		<g style="clip-path:url(#SVGID_00000173879097264508595000000011396738197857539505_);">
			<polygon style="fill:#E5E5E5;" points="1219.063,705.95 1042.079,774.156 1042.079,653.963 1219.063,585.757 			"/>
			<polygon style="fill:#E5E5E5;" points="1219.062,946.334 1042.078,1014.541 1042.078,894.348 1219.062,826.142 			"/>
			<polygon style="fill:#F2F2F2;" points="1219.063,826.143 1042.079,894.35 1042.079,774.157 1219.063,705.951 			"/>
			<polygon style="fill:#E5E5E5;" points="865.096,962.551 688.111,1030.757 688.111,910.564 865.096,842.358 			"/>
			<polygon style="fill:#D8D8D8;" points="1042.08,894.349 865.096,962.556 865.096,842.363 1042.08,774.157 			"/>
			
				<radialGradient id="SVGID_00000155115615742388025340000002721445425702159279_" cx="75.5176" cy="1194.2876" r="91.276" gradientTransform="matrix(1.5496 -0.5692 0.011 0.4038 734.4428 390.2813)" gradientUnits="userSpaceOnUse">
				<stop  offset="0" style="stop-color:#404040"/>
				<stop  offset="0.1862" style="stop-color:#6D6D6D"/>
				<stop  offset="0.469" style="stop-color:#ABABAB"/>
				<stop  offset="0.7089" style="stop-color:#D9D9D9"/>
				<stop  offset="0.8932" style="stop-color:#F5F5F5"/>
				<stop  offset="1" style="stop-color:#FFFFFF"/>
			</radialGradient>
			<path style="fill:url(#SVGID_00000155115615742388025340000002721445425702159279_);" d="M1015.998,791.617
				c-0.858,24.92-66.624,65.727-146.893,91.145c-80.269,25.418-144.645,25.822-143.788,0.902s66.624-65.727,146.893-91.145
				C952.48,767.102,1016.856,766.698,1015.998,791.617z"/>
			<polygon style="fill:#F2F2F2;" points="1042.08,774.155 865.096,842.362 865.096,722.169 1042.08,653.963 			"/>
			
				<radialGradient id="SVGID_00000178890717407094134550000011647731983649751688_" cx="182.3696" cy="1101.6841" r="91.2759" gradientTransform="matrix(1.5496 -0.5692 0.011 0.4038 739.9521 304.4917)" gradientUnits="userSpaceOnUse">
				<stop  offset="0" style="stop-color:#404040"/>
				<stop  offset="0.1862" style="stop-color:#6D6D6D"/>
				<stop  offset="0.469" style="stop-color:#ABABAB"/>
				<stop  offset="0.7089" style="stop-color:#D9D9D9"/>
				<stop  offset="0.8932" style="stop-color:#F5F5F5"/>
				<stop  offset="1" style="stop-color:#FFFFFF"/>
			</radialGradient>
			<path style="fill:url(#SVGID_00000178890717407094134550000011647731983649751688_);" d="M1186.072,607.615
				c-0.857,24.92-66.624,65.727-146.893,91.145c-80.269,25.418-144.645,25.822-143.788,0.902
				c0.857-24.92,66.624-65.727,146.893-91.145S1186.93,582.695,1186.072,607.615z"/>
			<polygon style="fill:#E5E5E5;" points="688.112,910.557 511.128,978.763 511.128,858.57 688.112,790.364 			"/>
			
				<radialGradient id="SVGID_00000145051387794573868410000003400608971163609995_" cx="-159.5968" cy="1124.9766" r="91.276" gradientTransform="matrix(1.5496 -0.5692 0.011 0.4038 738.6647 301.2954)" gradientUnits="userSpaceOnUse">
				<stop  offset="0" style="stop-color:#404040"/>
				<stop  offset="0.1862" style="stop-color:#6D6D6D"/>
				<stop  offset="0.469" style="stop-color:#ABABAB"/>
				<stop  offset="0.7089" style="stop-color:#D9D9D9"/>
				<stop  offset="0.8932" style="stop-color:#F5F5F5"/>
				<stop  offset="1" style="stop-color:#FFFFFF"/>
			</radialGradient>
			<path style="fill:url(#SVGID_00000145051387794573868410000003400608971163609995_);" d="M655.125,808.481
				c-0.858,24.92-66.624,65.727-146.893,91.145s-144.645,25.822-143.788,0.902c0.857-24.92,66.624-65.727,146.893-91.145
				C591.606,783.964,655.982,783.561,655.125,808.481z"/>
			<polygon style="fill:#D8D8D8;" points="1042.08,653.96 865.096,722.167 865.096,601.974 1042.08,533.768 			"/>
			<polygon style="fill:#E5E5E5;" points="865.096,722.17 688.111,790.376 688.111,670.184 865.096,601.977 			"/>
			
				<radialGradient id="SVGID_00000152959497950878339940000018250456975174821007_" cx="70.1191" cy="1023.2454" r="91.276" gradientTransform="matrix(1.5496 -0.5692 0.011 0.4038 744.682 215.8822)" gradientUnits="userSpaceOnUse">
				<stop  offset="0" style="stop-color:#404040"/>
				<stop  offset="0.1862" style="stop-color:#6D6D6D"/>
				<stop  offset="0.469" style="stop-color:#ABABAB"/>
				<stop  offset="0.7089" style="stop-color:#D9D9D9"/>
				<stop  offset="0.8932" style="stop-color:#F5F5F5"/>
				<stop  offset="1" style="stop-color:#FFFFFF"/>
			</radialGradient>
			<path style="fill:url(#SVGID_00000152959497950878339940000018250456975174821007_);" d="M1015.998,551.232
				c-0.858,24.92-66.624,65.727-146.893,91.145c-80.269,25.418-144.645,25.822-143.788,0.902
				c0.858-24.92,66.624-65.727,146.893-91.145C952.48,526.716,1016.856,526.312,1015.998,551.232z"/>
			<polygon style="fill:#E5E5E5;" points="334.151,926.784 157.166,994.99 157.166,874.798 334.151,806.591 			"/>
			<polygon style="fill:#D8D8D8;" points="511.136,858.578 334.152,926.784 334.152,806.591 511.136,738.385 			"/>
			
				<radialGradient id="SVGID_00000098934414249643623840000010013238134472225188_" cx="-271.7114" cy="1049.6211" r="91.276" gradientTransform="matrix(1.5496 -0.5692 0.011 0.4038 743.21 215.8326)" gradientUnits="userSpaceOnUse">
				<stop  offset="0" style="stop-color:#404040"/>
				<stop  offset="0.1862" style="stop-color:#6D6D6D"/>
				<stop  offset="0.469" style="stop-color:#ABABAB"/>
				<stop  offset="0.7089" style="stop-color:#D9D9D9"/>
				<stop  offset="0.8932" style="stop-color:#F5F5F5"/>
				<stop  offset="1" style="stop-color:#FFFFFF"/>
			</radialGradient>
			<path style="fill:url(#SVGID_00000098934414249643623840000010013238134472225188_);" d="M485.11,756.411
				c-0.858,24.92-66.624,65.727-146.893,91.145c-80.269,25.418-144.645,25.822-143.788,0.902
				c0.858-24.92,66.624-65.727,146.893-91.145C421.592,731.895,485.968,731.491,485.11,756.411z"/>
			<polygon style="fill:#F2F2F2;" points="511.136,738.387 334.152,806.594 334.152,686.401 511.136,618.195 			"/>
			<polygon style="fill:#F2F2F2;" points="688.112,790.365 511.128,858.572 511.128,738.379 688.112,670.173 			"/>
			<polygon style="fill:#E5E5E5;" points="688.112,670.174 511.128,738.381 511.128,618.188 688.112,549.982 			"/>
			
				<radialGradient id="SVGID_00000168810554551122088600000012760346777291277201_" cx="-165.0327" cy="952.7514" r="91.276" gradientTransform="matrix(1.5496 -0.5692 0.011 0.4038 748.9747 125.6901)" gradientUnits="userSpaceOnUse">
				<stop  offset="0" style="stop-color:#404040"/>
				<stop  offset="0.1862" style="stop-color:#6D6D6D"/>
				<stop  offset="0.469" style="stop-color:#ABABAB"/>
				<stop  offset="0.7089" style="stop-color:#D9D9D9"/>
				<stop  offset="0.8932" style="stop-color:#F5F5F5"/>
				<stop  offset="1" style="stop-color:#FFFFFF"/>
			</radialGradient>
			<path style="fill:url(#SVGID_00000168810554551122088600000012760346777291277201_);" d="M655.125,566.433
				c-0.858,24.92-66.624,65.727-146.893,91.145c-80.269,25.418-144.645,25.822-143.788,0.902
				c0.857-24.92,66.624-65.727,146.893-91.145C591.606,541.917,655.982,541.513,655.125,566.433z"/>
			<polygon style="fill:#D8D8D8;" points="334.151,806.594 157.166,874.8 157.166,754.607 334.151,686.401 			"/>
			<polygon style="fill:#E5E5E5;" points="334.151,686.403 157.166,754.609 157.166,634.417 334.151,566.21 			"/>
			<polygon style="fill:#D8D8D8;" points="511.136,618.197 334.152,686.403 334.152,566.21 511.136,498.004 			"/>
			<polygon style="fill:#E5E5E5;" points="865.096,481.785 688.111,549.992 688.111,429.799 865.096,361.592 			"/>
			<polygon style="fill:#E5E5E5;" points="1219.063,465.565 1042.079,533.771 1042.079,413.578 1219.063,345.372 			"/>
			<polygon style="fill:#F2F2F2;" points="1042.08,533.771 865.096,601.977 865.096,481.784 1042.08,413.578 			"/>
			
				<radialGradient id="SVGID_00000021832983823611488700000014970282598484311169_" cx="176.8878" cy="928.0022" r="91.2759" gradientTransform="matrix(1.5496 -0.5692 0.011 0.4038 750.3494 127.4011)" gradientUnits="userSpaceOnUse">
				<stop  offset="0" style="stop-color:#404040"/>
				<stop  offset="0.1862" style="stop-color:#6D6D6D"/>
				<stop  offset="0.469" style="stop-color:#ABABAB"/>
				<stop  offset="0.7089" style="stop-color:#D9D9D9"/>
				<stop  offset="0.8932" style="stop-color:#F5F5F5"/>
				<stop  offset="1" style="stop-color:#FFFFFF"/>
			</radialGradient>
			<path style="fill:url(#SVGID_00000021832983823611488700000014970282598484311169_);" d="M1186.072,363.52
				c-0.857,24.92-66.624,65.727-146.893,91.145c-80.269,25.418-144.645,25.822-143.788,0.902
				c0.857-24.92,66.624-65.727,146.893-91.145C1122.554,339.004,1186.93,338.6,1186.072,363.52z"/>
			<polygon style="fill:#D8D8D8;" points="1042.08,413.577 865.096,481.783 865.096,361.59 1042.08,293.384 			"/>
			<polygon style="fill:#F2F2F2;" points="1219.062,345.373 1042.078,413.579 1042.078,293.387 1219.062,225.18 			"/>
			<polygon style="fill:#F2F2F2;" points="1219.063,585.756 1042.079,653.962 1042.079,533.769 1219.063,465.563 			"/>
			
				<radialGradient id="SVGID_00000003795466152518196120000005557494860445375897_" cx="64.7263" cy="852.3878" r="91.276" gradientTransform="matrix(1.5496 -0.5692 0.011 0.4038 754.9102 41.6713)" gradientUnits="userSpaceOnUse">
				<stop  offset="0" style="stop-color:#404040"/>
				<stop  offset="0.1862" style="stop-color:#6D6D6D"/>
				<stop  offset="0.469" style="stop-color:#ABABAB"/>
				<stop  offset="0.7089" style="stop-color:#D9D9D9"/>
				<stop  offset="0.8932" style="stop-color:#F5F5F5"/>
				<stop  offset="1" style="stop-color:#FFFFFF"/>
			</radialGradient>
			<path style="fill:url(#SVGID_00000003795466152518196120000005557494860445375897_);" d="M1015.998,311.106
				c-0.858,24.92-66.624,65.727-146.893,91.145c-80.269,25.418-144.645,25.822-143.788,0.902
				c0.858-24.92,66.624-65.727,146.893-91.145C952.48,286.59,1016.856,286.186,1015.998,311.106z"/>
			<polygon style="fill:#E5E5E5;" points="1219.063,225.178 1042.079,293.384 1042.079,173.192 1219.063,104.985 			"/>
			<polygon style="fill:#F2F2F2;" points="1042.08,293.385 865.096,361.592 865.096,241.399 1042.08,173.193 			"/>
			
				<radialGradient id="SVGID_00000014604441480958876400000006605338507338552506_" cx="171.471" cy="756.3828" r="91.2759" gradientTransform="matrix(1.5496 -0.5692 0.011 0.4038 760.6232 -47.5866)" gradientUnits="userSpaceOnUse">
				<stop  offset="0" style="stop-color:#404040"/>
				<stop  offset="0.1862" style="stop-color:#6D6D6D"/>
				<stop  offset="0.469" style="stop-color:#ABABAB"/>
				<stop  offset="0.7089" style="stop-color:#D9D9D9"/>
				<stop  offset="0.8932" style="stop-color:#F5F5F5"/>
				<stop  offset="1" style="stop-color:#FFFFFF"/>
			</radialGradient>
			<path style="fill:url(#SVGID_00000014604441480958876400000006605338507338552506_);" d="M1186.072,122.324
				c-0.857,24.92-66.624,65.727-146.893,91.145s-144.645,25.822-143.788,0.902c0.857-24.92,66.624-65.727,146.893-91.145
				C1122.554,97.808,1186.93,97.404,1186.072,122.324z"/>
			<polygon style="fill:#D8D8D8;" points="1042.08,173.191 865.096,241.397 865.096,121.205 1042.08,52.998 			"/>
			<polygon style="fill:#F2F2F2;" points="1219.063,104.984 1042.079,173.191 1042.079,52.998 1219.063,-15.208 			"/>
			<polygon style="fill:#E5E5E5;" points="1219.063,-15.208 1042.079,52.999 1042.079,-67.194 1219.063,-135.4 			"/>
			<polygon style="fill:#E5E5E5;" points="1219.063,-255.589 1042.079,-187.382 1042.079,-307.575 1219.063,-375.781 			"/>
			<polygon style="fill:#F2F2F2;" points="688.112,549.983 511.128,618.189 511.128,497.997 688.112,429.79 			"/>
			
				<radialGradient id="SVGID_00000096044800632923444350000003711458946602162091_" cx="-277.1109" cy="878.5475" r="91.276" gradientTransform="matrix(1.5496 -0.5692 0.011 0.4038 753.451 41.4015)" gradientUnits="userSpaceOnUse">
				<stop  offset="0" style="stop-color:#404040"/>
				<stop  offset="0.1862" style="stop-color:#6D6D6D"/>
				<stop  offset="0.469" style="stop-color:#ABABAB"/>
				<stop  offset="0.7089" style="stop-color:#D9D9D9"/>
				<stop  offset="0.8932" style="stop-color:#F5F5F5"/>
				<stop  offset="1" style="stop-color:#FFFFFF"/>
			</radialGradient>
			<path style="fill:url(#SVGID_00000096044800632923444350000003711458946602162091_);" d="M485.11,515.982
				c-0.858,24.92-66.624,65.727-146.893,91.145c-80.269,25.418-144.645,25.822-143.788,0.902
				c0.858-24.92,66.624-65.727,146.893-91.145C421.592,491.466,485.968,491.062,485.11,515.982z"/>
			<polygon style="fill:#D8D8D8;" points="334.151,566.213 157.166,634.419 157.166,514.226 334.151,446.02 			"/>
			<polygon style="fill:#E5E5E5;" points="688.112,429.792 511.128,497.998 511.128,377.805 688.112,309.599 			"/>
			<polygon style="fill:#F2F2F2;" points="511.136,498.007 334.152,566.213 334.152,446.02 511.136,377.814 			"/>
			<polygon style="fill:#D8D8D8;" points="865.096,361.591 688.111,429.797 688.111,309.604 865.096,241.398 			"/>
			<polygon style="fill:#D8D8D8;" points="865.096,601.976 688.111,670.182 688.111,549.99 865.096,481.783 			"/>
			<polygon style="fill:#D8D8D8;" points="865.096,842.356 688.111,910.562 688.111,790.369 865.096,722.163 			"/>
			
				<radialGradient id="SVGID_00000088110074702108525550000000200805571798201012_" cx="-170.4053" cy="782.5308" r="91.276" gradientTransform="matrix(1.5496 -0.5692 0.011 0.4038 759.1648 -47.8713)" gradientUnits="userSpaceOnUse">
				<stop  offset="0" style="stop-color:#404040"/>
				<stop  offset="0.1862" style="stop-color:#6D6D6D"/>
				<stop  offset="0.469" style="stop-color:#ABABAB"/>
				<stop  offset="0.7089" style="stop-color:#D9D9D9"/>
				<stop  offset="0.8932" style="stop-color:#F5F5F5"/>
				<stop  offset="1" style="stop-color:#FFFFFF"/>
			</radialGradient>
			<path style="fill:url(#SVGID_00000088110074702108525550000000200805571798201012_);" d="M655.125,327.202
				c-0.858,24.92-66.624,65.727-146.893,91.145s-144.645,25.822-143.788,0.902c0.857-24.92,66.624-65.727,146.893-91.145
				C591.606,302.686,655.982,302.282,655.125,327.202z"/>
			<polygon style="fill:#E5E5E5;" points="334.151,446.022 157.166,514.228 157.166,394.035 334.151,325.829 			"/>
			<polygon style="fill:#D8D8D8;" points="511.136,377.816 334.152,446.022 334.152,325.829 511.136,257.623 			"/>
			<polygon style="fill:#E5E5E5;" points="865.096,241.401 688.111,309.607 688.111,189.415 865.096,121.208 			"/>
			<polygon style="fill:#F2F2F2;" points="688.112,309.601 511.128,377.807 511.128,257.614 688.112,189.408 			"/>
			
				<radialGradient id="SVGID_00000174572738493753326370000015201498912529094531_" cx="-286.197" cy="705.6989" r="91.276" gradientTransform="matrix(1.5496 -0.5692 0.011 0.4038 763.7996 -135.125)" gradientUnits="userSpaceOnUse">
				<stop  offset="0" style="stop-color:#404040"/>
				<stop  offset="0.1862" style="stop-color:#6D6D6D"/>
				<stop  offset="0.469" style="stop-color:#ABABAB"/>
				<stop  offset="0.7089" style="stop-color:#D9D9D9"/>
				<stop  offset="0.8932" style="stop-color:#F5F5F5"/>
				<stop  offset="1" style="stop-color:#FFFFFF"/>
			</radialGradient>
			<path style="fill:url(#SVGID_00000174572738493753326370000015201498912529094531_);" d="M479.486,274.839
				c-0.858,24.92-66.624,65.727-146.893,91.145c-80.269,25.418-144.645,25.822-143.788,0.902
				c0.858-24.92,66.624-65.727,146.893-91.145C415.967,250.323,480.343,249.919,479.486,274.839z"/>
			<polygon style="fill:#D8D8D8;" points="334.151,325.831 157.166,394.038 157.166,273.845 334.151,205.639 			"/>
			<polygon style="fill:#E5E5E5;" points="688.112,189.41 511.128,257.616 511.128,137.423 688.112,69.217 			"/>
			<polygon style="fill:#F2F2F2;" points="511.136,257.625 334.152,325.832 334.152,205.639 511.136,137.433 			"/>
			
				<radialGradient id="SVGID_00000060734288590152679860000007544523040417688993_" cx="-175.6907" cy="615.0735" r="91.276" gradientTransform="matrix(1.5496 -0.5692 0.011 0.4038 769.1894 -218.6151)" gradientUnits="userSpaceOnUse">
				<stop  offset="0" style="stop-color:#404040"/>
				<stop  offset="0.1862" style="stop-color:#6D6D6D"/>
				<stop  offset="0.469" style="stop-color:#ABABAB"/>
				<stop  offset="0.7089" style="stop-color:#D9D9D9"/>
				<stop  offset="0.8932" style="stop-color:#F5F5F5"/>
				<stop  offset="1" style="stop-color:#FFFFFF"/>
			</radialGradient>
			<path style="fill:url(#SVGID_00000060734288590152679860000007544523040417688993_);" d="M655.125,91.855
				c-0.858,24.92-66.624,65.727-146.893,91.145s-144.645,25.822-143.788,0.902c0.857-24.92,66.624-65.727,146.893-91.145
				C591.606,67.339,655.982,66.935,655.125,91.855z"/>
			<polygon style="fill:#E5E5E5;" points="334.151,205.641 157.166,273.847 157.166,153.654 334.151,85.448 			"/>
			<polygon style="fill:#D8D8D8;" points="511.136,137.435 334.152,205.641 334.152,85.449 511.136,17.242 			"/>
			<polygon style="fill:#E5E5E5;" points="865.096,1.016 688.111,69.222 688.111,-50.971 865.096,-119.177 			"/>
			<polygon style="fill:#F2F2F2;" points="688.112,69.218 511.128,137.425 511.128,17.232 688.112,-50.974 			"/>
			
				<radialGradient id="SVGID_00000156572261969971078290000015489071259815659660_" cx="-287.9118" cy="536.3426" r="91.276" gradientTransform="matrix(1.5496 -0.5692 0.011 0.4038 773.9368 -307.5196)" gradientUnits="userSpaceOnUse">
				<stop  offset="0" style="stop-color:#404040"/>
				<stop  offset="0.1862" style="stop-color:#6D6D6D"/>
				<stop  offset="0.469" style="stop-color:#ABABAB"/>
				<stop  offset="0.7089" style="stop-color:#D9D9D9"/>
				<stop  offset="0.8932" style="stop-color:#F5F5F5"/>
				<stop  offset="1" style="stop-color:#FFFFFF"/>
			</radialGradient>
			<path style="fill:url(#SVGID_00000156572261969971078290000015489071259815659660_);" d="M485.11,35.042
				c-0.858,24.92-66.624,65.727-146.893,91.145c-80.269,25.418-144.645,25.822-143.788,0.902
				c0.858-24.92,66.624-65.727,146.893-91.145C421.592,10.526,485.968,10.122,485.11,35.042z"/>
			<polygon style="fill:#D8D8D8;" points="334.151,85.45 157.166,153.657 157.166,33.464 334.151,-34.742 			"/>
			<polygon style="fill:#E5E5E5;" points="688.112,-50.973 511.128,17.233 511.128,-102.959 688.112,-171.165 			"/>
			<polygon style="fill:#F2F2F2;" points="511.136,17.245 334.152,85.451 334.152,-34.742 511.136,-102.948 			"/>
			
				<radialGradient id="SVGID_00000056426105233386833200000008697971599945226370_" cx="-181.2062" cy="440.326" r="91.276" gradientTransform="matrix(1.5496 -0.5692 0.011 0.4038 779.6505 -396.7923)" gradientUnits="userSpaceOnUse">
				<stop  offset="0" style="stop-color:#404040"/>
				<stop  offset="0.1862" style="stop-color:#6D6D6D"/>
				<stop  offset="0.469" style="stop-color:#ABABAB"/>
				<stop  offset="0.7089" style="stop-color:#D9D9D9"/>
				<stop  offset="0.8932" style="stop-color:#F5F5F5"/>
				<stop  offset="1" style="stop-color:#FFFFFF"/>
			</radialGradient>
			<path style="fill:url(#SVGID_00000056426105233386833200000008697971599945226370_);" d="M655.125-153.738
				c-0.858,24.92-66.624,65.727-146.893,91.145c-80.269,25.418-144.645,25.822-143.788,0.902
				c0.857-24.92,66.624-65.727,146.893-91.145C591.606-178.254,655.982-178.658,655.125-153.738z"/>
			<polygon style="fill:#E5E5E5;" points="334.151,-34.74 157.166,33.466 157.166,-86.727 334.151,-154.933 			"/>
			<polygon style="fill:#D8D8D8;" points="511.136,-102.946 334.152,-34.739 334.152,-154.932 511.136,-223.138 			"/>
			<polygon style="fill:#F2F2F2;" points="688.112,-171.164 511.128,-102.958 511.128,-223.15 688.112,-291.357 			"/>
			
				<radialGradient id="SVGID_00000077302063191166245440000009627928213623949748_" cx="-296.9979" cy="363.494" r="91.276" gradientTransform="matrix(1.5496 -0.5692 0.011 0.4038 784.2853 -484.0461)" gradientUnits="userSpaceOnUse">
				<stop  offset="0" style="stop-color:#404040"/>
				<stop  offset="0.1862" style="stop-color:#6D6D6D"/>
				<stop  offset="0.469" style="stop-color:#ABABAB"/>
				<stop  offset="0.7089" style="stop-color:#D9D9D9"/>
				<stop  offset="0.8932" style="stop-color:#F5F5F5"/>
				<stop  offset="1" style="stop-color:#FFFFFF"/>
			</radialGradient>
			<path style="fill:url(#SVGID_00000077302063191166245440000009627928213623949748_);" d="M479.486-206.101
				c-0.858,24.92-66.624,65.727-146.893,91.145s-144.645,25.822-143.788,0.902c0.858-24.92,66.624-65.727,146.893-91.145
				C415.967-230.617,480.343-231.021,479.486-206.101z"/>
			<polygon style="fill:#D8D8D8;" points="334.151,-154.931 157.166,-86.725 157.166,-206.917 334.151,-275.124 			"/>
			<polygon style="fill:#F2F2F2;" points="511.136,-223.136 334.152,-154.93 334.152,-275.122 511.136,-343.329 			"/>
			
				<radialGradient id="SVGID_00000064330622634696932540000017667683063434761106_" cx="-186.4916" cy="272.8687" r="91.276" gradientTransform="matrix(1.5496 -0.5692 0.011 0.4038 789.6751 -567.5362)" gradientUnits="userSpaceOnUse">
				<stop  offset="0" style="stop-color:#404040"/>
				<stop  offset="0.1862" style="stop-color:#6D6D6D"/>
				<stop  offset="0.469" style="stop-color:#ABABAB"/>
				<stop  offset="0.7089" style="stop-color:#D9D9D9"/>
				<stop  offset="0.8932" style="stop-color:#F5F5F5"/>
				<stop  offset="1" style="stop-color:#FFFFFF"/>
			</radialGradient>
			<path style="fill:url(#SVGID_00000064330622634696932540000017667683063434761106_);" d="M655.125-389.085
				c-0.858,24.92-66.624,65.727-146.893,91.145c-80.269,25.418-144.645,25.822-143.788,0.902
				c0.857-24.92,66.624-65.727,146.893-91.145C591.606-413.601,655.982-414.005,655.125-389.085z"/>
			<polygon style="fill:#E5E5E5;" points="334.151,-275.121 157.166,-206.915 157.166,-327.108 334.151,-395.314 			"/>
			<polygon style="fill:#D8D8D8;" points="511.136,-343.327 334.152,-275.12 334.152,-395.313 511.136,-463.519 			"/>
			<polygon style="fill:#E5E5E5;" points="688.112,-291.355 511.128,-223.149 511.128,-343.342 688.112,-411.548 			"/>
			<polygon style="fill:#F2F2F2;" points="688.112,-411.546 511.128,-343.34 511.128,-463.533 688.112,-531.739 			"/>
			
				<radialGradient id="SVGID_00000017485043254772675310000005173141110084741249_" cx="-298.743" cy="193.1801" r="91.276" gradientTransform="matrix(1.5496 -0.5692 0.011 0.4038 794.4798 -657.4171)" gradientUnits="userSpaceOnUse">
				<stop  offset="0" style="stop-color:#404040"/>
				<stop  offset="0.1862" style="stop-color:#6D6D6D"/>
				<stop  offset="0.469" style="stop-color:#ABABAB"/>
				<stop  offset="0.7089" style="stop-color:#D9D9D9"/>
				<stop  offset="0.8932" style="stop-color:#F5F5F5"/>
				<stop  offset="1" style="stop-color:#FFFFFF"/>
			</radialGradient>
			<path style="fill:url(#SVGID_00000017485043254772675310000005173141110084741249_);" d="M485.11-447.244
				c-0.858,24.92-66.624,65.727-146.893,91.145c-80.269,25.418-144.645,25.822-143.788,0.902
				c0.858-24.92,66.624-65.727,146.893-91.145C421.592-471.76,485.968-472.164,485.11-447.244z"/>
			<polygon style="fill:#E5E5E5;" points="157.167,874.799 -19.817,943.005 -19.817,822.812 157.167,754.606 			"/>
			
				<radialGradient id="SVGID_00000148650453512303350020000004585416267626493858_" cx="-509.0421" cy="983.7166" r="91.276" gradientTransform="matrix(1.5496 -0.5692 0.011 0.4038 747.2286 130.1374)" gradientUnits="userSpaceOnUse">
				<stop  offset="0" style="stop-color:#404040"/>
				<stop  offset="0.1862" style="stop-color:#6D6D6D"/>
				<stop  offset="0.469" style="stop-color:#ABABAB"/>
				<stop  offset="0.7089" style="stop-color:#D9D9D9"/>
				<stop  offset="0.8932" style="stop-color:#F5F5F5"/>
				<stop  offset="1" style="stop-color:#FFFFFF"/>
			</radialGradient>
			<path style="fill:url(#SVGID_00000148650453512303350020000004585416267626493858_);" d="M120.637,779.202
				c-0.858,24.92-66.624,65.727-146.893,91.145c-80.269,25.418-144.645,25.822-143.788,0.902
				c0.858-24.92,66.624-65.727,146.893-91.145S121.494,754.282,120.637,779.202z"/>
			<polygon style="fill:#E5E5E5;" points="157.167,634.418 -19.817,702.624 -19.817,582.431 157.167,514.225 			"/>
			
				<radialGradient id="SVGID_00000172433018135411004760000010921203998514589116_" cx="-514.4444" cy="812.554" r="91.276" gradientTransform="matrix(1.5496 -0.5692 0.011 0.4038 757.475 -44.3845)" gradientUnits="userSpaceOnUse">
				<stop  offset="0" style="stop-color:#404040"/>
				<stop  offset="0.1862" style="stop-color:#6D6D6D"/>
				<stop  offset="0.469" style="stop-color:#ABABAB"/>
				<stop  offset="0.7089" style="stop-color:#D9D9D9"/>
				<stop  offset="0.8932" style="stop-color:#F5F5F5"/>
				<stop  offset="1" style="stop-color:#FFFFFF"/>
			</radialGradient>
			<path style="fill:url(#SVGID_00000172433018135411004760000010921203998514589116_);" d="M120.637,538.648
				c-0.858,24.92-66.624,65.727-146.893,91.145c-80.269,25.418-144.645,25.822-143.788,0.902
				c0.858-24.92,66.624-65.727,146.893-91.145C57.118,514.131,121.494,513.728,120.637,538.648z"/>
			<polygon style="fill:#F2F2F2;" points="157.167,514.227 -19.817,582.434 -19.817,462.241 157.167,394.035 			"/>
			<polygon style="fill:#E5E5E5;" points="157.167,394.037 -19.817,462.243 -19.817,342.051 157.167,273.844 			"/>
			
				<radialGradient id="SVGID_00000081643188826629845300000011382890245434444167_" cx="-519.8467" cy="641.3914" r="91.276" gradientTransform="matrix(1.5496 -0.5692 0.011 0.4038 767.7215 -218.9064)" gradientUnits="userSpaceOnUse">
				<stop  offset="0" style="stop-color:#404040"/>
				<stop  offset="0.1862" style="stop-color:#6D6D6D"/>
				<stop  offset="0.469" style="stop-color:#ABABAB"/>
				<stop  offset="0.7089" style="stop-color:#D9D9D9"/>
				<stop  offset="0.8932" style="stop-color:#F5F5F5"/>
				<stop  offset="1" style="stop-color:#FFFFFF"/>
			</radialGradient>
			<path style="fill:url(#SVGID_00000081643188826629845300000011382890245434444167_);" d="M120.637,298.093
				c-0.858,24.92-66.624,65.727-146.893,91.145c-80.269,25.418-144.645,25.822-143.788,0.902
				c0.858-24.92,66.624-65.727,146.893-91.145C57.118,273.577,121.494,273.173,120.637,298.093z"/>
			<polygon style="fill:#F2F2F2;" points="157.167,754.608 -19.817,822.815 -19.817,702.622 157.167,634.416 			"/>
			<polygon style="fill:#F2F2F2;" points="157.167,273.846 -19.817,342.053 -19.817,221.86 157.167,153.654 			"/>
			<polygon style="fill:#E5E5E5;" points="157.167,153.656 -19.817,221.862 -19.817,101.67 157.167,33.463 			"/>
			
				<radialGradient id="SVGID_00000008869403310834946130000006246314562711664258_" cx="-525.3622" cy="466.6439" r="91.276" gradientTransform="matrix(1.5496 -0.5692 0.011 0.4038 778.1826 -397.0835)" gradientUnits="userSpaceOnUse">
				<stop  offset="0" style="stop-color:#404040"/>
				<stop  offset="0.1862" style="stop-color:#6D6D6D"/>
				<stop  offset="0.469" style="stop-color:#ABABAB"/>
				<stop  offset="0.7089" style="stop-color:#D9D9D9"/>
				<stop  offset="0.8932" style="stop-color:#F5F5F5"/>
				<stop  offset="1" style="stop-color:#FFFFFF"/>
			</radialGradient>
			<path style="fill:url(#SVGID_00000008869403310834946130000006246314562711664258_);" d="M120.637,52.5
				c-0.858,24.92-66.624,65.727-146.893,91.145c-80.269,25.418-144.645,25.822-143.788,0.902
				c0.858-24.92,66.624-65.727,146.893-91.145S121.494,27.58,120.637,52.5z"/>
			<polygon style="fill:#F2F2F2;" points="157.167,33.465 -19.817,101.672 -19.817,-18.521 157.167,-86.727 			"/>
			<polygon style="fill:#E5E5E5;" points="157.167,-86.725 -19.817,-18.519 -19.817,-138.712 157.167,-206.918 			"/>
			
				<radialGradient id="SVGID_00000034802538131144469080000001485928377452797321_" cx="-530.6476" cy="299.1866" r="91.276" gradientTransform="matrix(1.5496 -0.5692 0.011 0.4038 788.2072 -567.8274)" gradientUnits="userSpaceOnUse">
				<stop  offset="0" style="stop-color:#404040"/>
				<stop  offset="0.1862" style="stop-color:#6D6D6D"/>
				<stop  offset="0.469" style="stop-color:#ABABAB"/>
				<stop  offset="0.7089" style="stop-color:#D9D9D9"/>
				<stop  offset="0.8932" style="stop-color:#F5F5F5"/>
				<stop  offset="1" style="stop-color:#FFFFFF"/>
			</radialGradient>
			<path style="fill:url(#SVGID_00000034802538131144469080000001485928377452797321_);" d="M120.637-182.847
				c-0.858,24.92-66.624,65.727-146.893,91.145C-106.526-66.284-170.902-65.88-170.044-90.8
				c0.858-24.92,66.624-65.727,146.893-91.145C57.118-207.363,121.494-207.767,120.637-182.847z"/>
			<polygon style="fill:#F2F2F2;" points="157.167,-206.915 -19.817,-138.709 -19.817,-258.902 157.167,-327.108 			"/>
			<polygon style="fill:#E5E5E5;" points="157.167,-327.106 -19.817,-258.9 -19.817,-379.092 157.167,-447.299 			"/>
			<polygon style="fill:#D8D8D8;" points="334.151,-395.312 157.166,-327.106 157.166,-447.298 334.151,-515.505 			"/>
			
				<radialGradient id="SVGID_00000147187194815814260450000012753412665362168214_" cx="55.6402" cy="679.5391" r="91.276" gradientTransform="matrix(1.5496 -0.5692 0.011 0.4038 765.2587 -134.8552)" gradientUnits="userSpaceOnUse">
				<stop  offset="0" style="stop-color:#404040"/>
				<stop  offset="0.1862" style="stop-color:#6D6D6D"/>
				<stop  offset="0.469" style="stop-color:#ABABAB"/>
				<stop  offset="0.7089" style="stop-color:#D9D9D9"/>
				<stop  offset="0.8932" style="stop-color:#F5F5F5"/>
				<stop  offset="1" style="stop-color:#FFFFFF"/>
			</radialGradient>
			<path style="fill:url(#SVGID_00000147187194815814260450000012753412665362168214_);" d="M1010.373,69.963
				c-0.858,24.92-66.624,65.727-146.893,91.145s-144.645,25.822-143.788,0.902c0.857-24.92,66.624-65.727,146.893-91.145
				C946.855,45.447,1011.231,45.043,1010.373,69.963z"/>
			<polygon style="fill:#F2F2F2;" points="1042.08,52.999 865.096,121.205 865.096,1.013 1042.08,-67.193 			"/>
			
				<radialGradient id="SVGID_00000095322156506100405390000007605591953170269371_" cx="166.1856" cy="588.9254" r="91.2759" gradientTransform="matrix(1.5496 -0.5692 0.011 0.4038 770.6478 -218.3305)" gradientUnits="userSpaceOnUse">
				<stop  offset="0" style="stop-color:#404040"/>
				<stop  offset="0.1862" style="stop-color:#6D6D6D"/>
				<stop  offset="0.469" style="stop-color:#ABABAB"/>
				<stop  offset="0.7089" style="stop-color:#D9D9D9"/>
				<stop  offset="0.8932" style="stop-color:#F5F5F5"/>
				<stop  offset="1" style="stop-color:#FFFFFF"/>
			</radialGradient>
			<path style="fill:url(#SVGID_00000095322156506100405390000007605591953170269371_);" d="M1186.072-113.023
				c-0.857,24.92-66.624,65.727-146.893,91.145S894.534,3.944,895.391-20.976c0.857-24.92,66.624-65.727,146.893-91.145
				S1186.93-137.943,1186.072-113.023z"/>
			<polygon style="fill:#D8D8D8;" points="1042.08,-67.195 865.096,1.012 865.096,-119.181 1042.08,-187.387 			"/>
			<polygon style="fill:#F2F2F2;" points="1219.063,-135.4 1042.079,-67.194 1042.079,-187.387 1219.063,-255.593 			"/>
			
				<radialGradient id="SVGID_00000108301375937973968990000007805461418777898413_" cx="53.9254" cy="510.1829" r="91.276" gradientTransform="matrix(1.5496 -0.5692 0.011 0.4038 775.3959 -307.2498)" gradientUnits="userSpaceOnUse">
				<stop  offset="0" style="stop-color:#404040"/>
				<stop  offset="0.1862" style="stop-color:#6D6D6D"/>
				<stop  offset="0.469" style="stop-color:#ABABAB"/>
				<stop  offset="0.7089" style="stop-color:#D9D9D9"/>
				<stop  offset="0.8932" style="stop-color:#F5F5F5"/>
				<stop  offset="1" style="stop-color:#FFFFFF"/>
			</radialGradient>
			<path style="fill:url(#SVGID_00000108301375937973968990000007805461418777898413_);" d="M1015.998-169.834
				c-0.858,24.92-66.624,65.727-146.893,91.145c-80.269,25.418-144.645,25.822-143.788,0.902
				c0.858-24.92,66.624-65.727,146.893-91.145S1016.856-194.754,1015.998-169.834z"/>
			<polygon style="fill:#D8D8D8;" points="865.096,121.208 688.111,189.415 688.111,69.222 865.096,1.016 			"/>
			<polygon style="fill:#F2F2F2;" points="1042.08,-187.386 865.096,-119.18 865.096,-239.373 1042.08,-307.579 			"/>
			
				<radialGradient id="SVGID_00000170254990696319802260000004817490390247811483_" cx="160.6701" cy="414.1779" r="91.2759" gradientTransform="matrix(1.5496 -0.5692 0.011 0.4038 781.1089 -396.5077)" gradientUnits="userSpaceOnUse">
				<stop  offset="0" style="stop-color:#404040"/>
				<stop  offset="0.1862" style="stop-color:#6D6D6D"/>
				<stop  offset="0.469" style="stop-color:#ABABAB"/>
				<stop  offset="0.7089" style="stop-color:#D9D9D9"/>
				<stop  offset="0.8932" style="stop-color:#F5F5F5"/>
				<stop  offset="1" style="stop-color:#FFFFFF"/>
			</radialGradient>
			<path style="fill:url(#SVGID_00000170254990696319802260000004817490390247811483_);" d="M1186.072-358.616
				c-0.857,24.92-66.624,65.727-146.893,91.145c-80.269,25.418-144.645,25.822-143.788,0.902
				c0.857-24.92,66.624-65.727,146.893-91.145C1122.554-383.132,1186.93-383.536,1186.072-358.616z"/>
			<polygon style="fill:#D8D8D8;" points="1042.08,-307.574 865.096,-239.368 865.096,-359.56 1042.08,-427.767 			"/>
			<polygon style="fill:#F2F2F2;" points="1219.063,-375.782 1042.079,-307.576 1042.079,-427.768 1219.063,-495.974 			"/>
			<polygon style="fill:#E5E5E5;" points="865.096,-239.367 688.111,-171.16 688.111,-291.353 865.096,-359.559 			"/>
			<polygon style="fill:#D8D8D8;" points="865.096,-119.177 688.111,-50.97 688.111,-171.163 865.096,-239.369 			"/>
			
				<radialGradient id="SVGID_00000165223433844737409920000013749853523712065959_" cx="44.8394" cy="337.3343" r="91.276" gradientTransform="matrix(1.5496 -0.5692 0.011 0.4038 785.7444 -483.7762)" gradientUnits="userSpaceOnUse">
				<stop  offset="0" style="stop-color:#404040"/>
				<stop  offset="0.1862" style="stop-color:#6D6D6D"/>
				<stop  offset="0.469" style="stop-color:#ABABAB"/>
				<stop  offset="0.7089" style="stop-color:#D9D9D9"/>
				<stop  offset="0.8932" style="stop-color:#F5F5F5"/>
				<stop  offset="1" style="stop-color:#FFFFFF"/>
			</radialGradient>
			<path style="fill:url(#SVGID_00000165223433844737409920000013749853523712065959_);" d="M1010.373-410.977
				c-0.858,24.92-66.624,65.727-146.893,91.145c-80.269,25.418-144.645,25.822-143.788,0.902
				c0.857-24.92,66.624-65.727,146.893-91.145C946.855-435.493,1011.231-435.897,1010.373-410.977z"/>
			<polygon style="fill:#D8D8D8;" points="865.096,-359.559 688.111,-291.353 688.111,-411.546 865.096,-479.752 			"/>
			<polygon style="fill:#F2F2F2;" points="1042.08,-427.767 865.096,-359.56 865.096,-479.753 1042.08,-547.959 			"/>
		</g>
	</g>
	
		<linearGradient id="SVGID_00000028302723221524905470000007256268248700361358_" gradientUnits="userSpaceOnUse" x1="257.5946" y1="-332.7435" x2="914.9155" y2="953.9332" gradientTransform="matrix(-1 0 0 1 1200 0)">
		<stop  offset="0.2563" style="stop-color:#E8E8E8"/>
		<stop  offset="0.5344" style="stop-color:#E8E8E8;stop-opacity:0"/>
		<stop  offset="0.7923" style="stop-color:#E8E8E8"/>
	</linearGradient>
	<polygon style="fill:url(#SVGID_00000028302723221524905470000007256268248700361358_);" points="1200,0 0,0 0,675 1200,675 	"/>
	
		<linearGradient id="SVGID_00000075864389769914000590000004915142019563217840_" gradientUnits="userSpaceOnUse" x1="258.6223" y1="-332.3138" x2="915.5219" y2="953.538" gradientTransform="matrix(-1 0 0 1 1200 0)">
		<stop  offset="0.2599" style="stop-color:#FFFFFF"/>
		<stop  offset="0.5344" style="stop-color:#FFFFFF;stop-opacity:0"/>
		<stop  offset="0.7929" style="stop-color:#FFFFFF"/>
	</linearGradient>
	<polygon style="fill:url(#SVGID_00000075864389769914000590000004915142019563217840_);" points="1198.384,0 0,0 0,675 
		1198.384,675 	"/>
</g>
</svg>
